<mxfile host="app.diagrams.net" modified="2021-11-02T09:52:42.523Z" agent="5.0 (Macintosh; Intel Mac OS X 10_15_7) AppleWebKit/537.36 (KHTML, like Gecko) Chrome/95.0.4638.54 Safari/537.36" etag="oL-mPaFBv_4m6ewsl65m" version="15.6.5" type="github">
  <diagram id="FwQS3Dow_wqKr08i0dHV" name="Page-1">
    <mxGraphModel dx="2066" dy="1106" grid="1" gridSize="10" guides="1" tooltips="1" connect="1" arrows="1" fold="1" page="1" pageScale="1" pageWidth="827" pageHeight="1169" math="0" shadow="0">
      <root>
        <mxCell id="0" />
        <mxCell id="1" parent="0" />
        <mxCell id="lMTMJIfiO9YydzDY1bCF-2" value="&lt;div style=&quot;color: rgb(36 , 41 , 46) ; background-color: rgb(255 , 255 , 255) ; font-family: &amp;#34;consolas&amp;#34; , &amp;#34;courier new&amp;#34; , monospace ; font-size: 14px ; line-height: 19px&quot;&gt;&lt;div style=&quot;font-family: &amp;#34;consolas&amp;#34; , &amp;#34;courier new&amp;#34; , monospace ; line-height: 19px&quot;&gt;data_block.&lt;span style=&quot;color: #6f42c1&quot;&gt;Add&lt;/span&gt;(&lt;span style=&quot;color: #e36209&quot;&gt;key&lt;/span&gt;, &lt;span style=&quot;color: #e36209&quot;&gt;value&lt;/span&gt;)&lt;/div&gt;&lt;/div&gt;" style="text;html=1;align=center;verticalAlign=middle;resizable=0;points=[];autosize=1;strokeColor=none;fillColor=none;sketch=1;" parent="1" vertex="1">
          <mxGeometry x="60" y="100" width="220" height="20" as="geometry" />
        </mxCell>
        <mxCell id="lMTMJIfiO9YydzDY1bCF-4" value="BlockBuilder" style="swimlane;fontStyle=0;childLayout=stackLayout;horizontal=1;startSize=30;horizontalStack=0;resizeParent=1;resizeParentMax=0;resizeLast=0;collapsible=1;marginBottom=0;sketch=1;" parent="1" vertex="1">
          <mxGeometry x="20" y="390" width="310" height="210" as="geometry" />
        </mxCell>
        <mxCell id="lMTMJIfiO9YydzDY1bCF-5" value="const Options* options_;" style="text;strokeColor=none;fillColor=none;align=left;verticalAlign=middle;spacingLeft=4;spacingRight=4;overflow=hidden;points=[[0,0.5],[1,0.5]];portConstraint=eastwest;rotatable=0;fontColor=#000000;sketch=1;" parent="lMTMJIfiO9YydzDY1bCF-4" vertex="1">
          <mxGeometry y="30" width="310" height="30" as="geometry" />
        </mxCell>
        <mxCell id="lMTMJIfiO9YydzDY1bCF-6" value="std::string buffer_;  // Destination buffer" style="text;strokeColor=none;fillColor=none;align=left;verticalAlign=middle;spacingLeft=4;spacingRight=4;overflow=hidden;points=[[0,0.5],[1,0.5]];portConstraint=eastwest;rotatable=0;fontColor=#000000;sketch=1;" parent="lMTMJIfiO9YydzDY1bCF-4" vertex="1">
          <mxGeometry y="60" width="310" height="30" as="geometry" />
        </mxCell>
        <mxCell id="lMTMJIfiO9YydzDY1bCF-10" value="std::vector&lt;uint32_t&gt; restarts_;  // Restart points" style="text;strokeColor=none;fillColor=none;align=left;verticalAlign=middle;spacingLeft=4;spacingRight=4;overflow=hidden;points=[[0,0.5],[1,0.5]];portConstraint=eastwest;rotatable=0;sketch=1;" parent="lMTMJIfiO9YydzDY1bCF-4" vertex="1">
          <mxGeometry y="90" width="310" height="30" as="geometry" />
        </mxCell>
        <mxCell id="lMTMJIfiO9YydzDY1bCF-9" value="int counter_;  // Number of entries emitted since restart" style="text;strokeColor=none;fillColor=none;align=left;verticalAlign=middle;spacingLeft=4;spacingRight=4;overflow=hidden;points=[[0,0.5],[1,0.5]];portConstraint=eastwest;rotatable=0;sketch=1;" parent="lMTMJIfiO9YydzDY1bCF-4" vertex="1">
          <mxGeometry y="120" width="310" height="30" as="geometry" />
        </mxCell>
        <mxCell id="lMTMJIfiO9YydzDY1bCF-8" value="bool finished_;  // Has Finish() been called?" style="text;strokeColor=none;fillColor=none;align=left;verticalAlign=middle;spacingLeft=4;spacingRight=4;overflow=hidden;points=[[0,0.5],[1,0.5]];portConstraint=eastwest;rotatable=0;sketch=1;" parent="lMTMJIfiO9YydzDY1bCF-4" vertex="1">
          <mxGeometry y="150" width="310" height="30" as="geometry" />
        </mxCell>
        <mxCell id="lMTMJIfiO9YydzDY1bCF-7" value="std::string last_key_; // last key ,last entry" style="text;strokeColor=none;fillColor=none;align=left;verticalAlign=middle;spacingLeft=4;spacingRight=4;overflow=hidden;points=[[0,0.5],[1,0.5]];portConstraint=eastwest;rotatable=0;sketch=1;" parent="lMTMJIfiO9YydzDY1bCF-4" vertex="1">
          <mxGeometry y="180" width="310" height="30" as="geometry" />
        </mxCell>
        <mxCell id="lMTMJIfiO9YydzDY1bCF-20" value="&lt;div style=&quot;color: rgb(36 , 41 , 46) ; background-color: rgb(255 , 255 , 255) ; font-family: &amp;#34;consolas&amp;#34; , &amp;#34;courier new&amp;#34; , monospace ; font-size: 14px ; line-height: 19px&quot;&gt;&lt;div style=&quot;font-family: &amp;#34;consolas&amp;#34; , &amp;#34;courier new&amp;#34; , monospace ; line-height: 19px&quot;&gt;&lt;span style=&quot;color: #6a737d&quot;&gt;entry&lt;/span&gt;&lt;/div&gt;&lt;/div&gt;" style="text;html=1;align=center;verticalAlign=middle;resizable=0;points=[];autosize=1;strokeColor=none;fillColor=none;fontColor=#000000;sketch=1;" parent="1" vertex="1">
          <mxGeometry x="895" y="170" width="50" height="20" as="geometry" />
        </mxCell>
        <mxCell id="lMTMJIfiO9YydzDY1bCF-26" value="&lt;div style=&quot;color: rgb(36 , 41 , 46) ; background-color: rgb(255 , 255 , 255) ; font-family: &amp;#34;consolas&amp;#34; , &amp;#34;courier new&amp;#34; , monospace ; font-size: 14px ; line-height: 19px&quot;&gt;index_block.&lt;span style=&quot;color: #6f42c1&quot;&gt;Add&lt;/span&gt;(last_key, &lt;span style=&quot;color: #6f42c1&quot;&gt;Slice&lt;/span&gt;(handle_encoding))&lt;/div&gt;" style="text;html=1;align=center;verticalAlign=middle;resizable=0;points=[];autosize=1;strokeColor=none;fillColor=none;fontColor=#000000;sketch=1;" parent="1" vertex="1">
          <mxGeometry x="60" y="60" width="390" height="20" as="geometry" />
        </mxCell>
        <mxCell id="qPYvJAcTCLMzXNwxLk-w-16" value="restart0" style="rounded=0;whiteSpace=wrap;html=1;shadow=0;sketch=1;fontSize=14;strokeColor=#BD7000;fillColor=#f0a30a;fontColor=#000000;" parent="1" vertex="1">
          <mxGeometry x="970" y="440" width="60" height="50" as="geometry" />
        </mxCell>
        <mxCell id="qPYvJAcTCLMzXNwxLk-w-18" value="restart1" style="rounded=0;whiteSpace=wrap;html=1;shadow=0;sketch=1;fontSize=14;strokeColor=#BD7000;fillColor=#f0a30a;fontColor=#000000;" parent="1" vertex="1">
          <mxGeometry x="1030" y="440" width="60" height="50" as="geometry" />
        </mxCell>
        <mxCell id="qPYvJAcTCLMzXNwxLk-w-19" value="..." style="rounded=0;whiteSpace=wrap;html=1;shadow=0;sketch=1;fontSize=14;strokeColor=#BD7000;fillColor=#f0a30a;fontColor=#000000;" parent="1" vertex="1">
          <mxGeometry x="1090" y="440" width="60" height="50" as="geometry" />
        </mxCell>
        <mxCell id="qPYvJAcTCLMzXNwxLk-w-20" value="restart size" style="rounded=0;whiteSpace=wrap;html=1;shadow=0;sketch=1;fontSize=14;strokeColor=#BD7000;fillColor=#f0a30a;fontColor=#000000;" parent="1" vertex="1">
          <mxGeometry x="1150" y="440" width="60" height="50" as="geometry" />
        </mxCell>
        <mxCell id="qPYvJAcTCLMzXNwxLk-w-21" style="edgeStyle=orthogonalEdgeStyle;rounded=0;orthogonalLoop=1;jettySize=auto;html=1;fontSize=14;sketch=1;" parent="1" source="lMTMJIfiO9YydzDY1bCF-6" edge="1">
          <mxGeometry relative="1" as="geometry">
            <mxPoint x="500" y="465" as="targetPoint" />
          </mxGeometry>
        </mxCell>
        <mxCell id="lMTMJIfiO9YydzDY1bCF-12" value="&lt;span style=&quot;color: rgb(0 , 0 , 0) ; font-size: 14px&quot;&gt;shared&lt;br&gt;Varint32&lt;br&gt;&lt;/span&gt;" style="rounded=0;whiteSpace=wrap;html=1;sketch=1;fillColor=#b1ddf0;strokeColor=#10739e;" parent="1" vertex="1">
          <mxGeometry x="530" y="250" width="118.58823529411764" height="45" as="geometry" />
        </mxCell>
        <mxCell id="lMTMJIfiO9YydzDY1bCF-13" value="&lt;div&gt;&lt;font color=&quot;#000000&quot; face=&quot;helvetica&quot;&gt;&lt;span style=&quot;font-size: 14px&quot;&gt;non_shared&lt;/span&gt;&lt;/font&gt;&lt;/div&gt;&lt;div&gt;&lt;font color=&quot;#000000&quot; face=&quot;helvetica&quot;&gt;&lt;span style=&quot;font-size: 14px&quot;&gt;Varint32&lt;/span&gt;&lt;/font&gt;&lt;/div&gt;" style="rounded=0;whiteSpace=wrap;html=1;sketch=1;fillColor=#b1ddf0;strokeColor=#10739e;" parent="1" vertex="1">
          <mxGeometry x="648.5882352941177" y="250" width="118.58823529411764" height="45" as="geometry" />
        </mxCell>
        <mxCell id="lMTMJIfiO9YydzDY1bCF-14" value="&lt;div&gt;&lt;font color=&quot;#000000&quot;&gt;&lt;span style=&quot;font-size: 14px&quot;&gt;value_size&lt;/span&gt;&lt;/font&gt;&lt;/div&gt;&lt;div&gt;&lt;font color=&quot;#000000&quot;&gt;&lt;span style=&quot;font-size: 14px&quot;&gt;Varint32&lt;/span&gt;&lt;/font&gt;&lt;/div&gt;" style="rounded=0;whiteSpace=wrap;html=1;sketch=1;fillColor=#b1ddf0;strokeColor=#10739e;" parent="1" vertex="1">
          <mxGeometry x="767.1764705882352" y="250" width="118.58823529411764" height="45" as="geometry" />
        </mxCell>
        <mxCell id="lMTMJIfiO9YydzDY1bCF-15" value="&lt;div&gt;&lt;font color=&quot;#000000&quot;&gt;&lt;span style=&quot;font-size: 14px&quot;&gt;sub(key.data() + shared, non_shared)&lt;/span&gt;&lt;/font&gt;&lt;/div&gt;&lt;div&gt;&lt;font color=&quot;#000000&quot;&gt;&lt;span style=&quot;font-size: 14px&quot;&gt;string&lt;/span&gt;&lt;/font&gt;&lt;/div&gt;" style="rounded=0;whiteSpace=wrap;html=1;fillColor=#b1ddf0;sketch=1;strokeColor=#10739e;" parent="1" vertex="1">
          <mxGeometry x="885.7647058823529" y="250" width="266.82352941176464" height="45" as="geometry" />
        </mxCell>
        <mxCell id="lMTMJIfiO9YydzDY1bCF-16" value="&lt;div&gt;&lt;font color=&quot;#000000&quot;&gt;&lt;span style=&quot;font-size: 14px&quot;&gt;value.data()&lt;/span&gt;&lt;/font&gt;&lt;/div&gt;&lt;div&gt;&lt;font color=&quot;#000000&quot;&gt;&lt;span style=&quot;font-size: 14px&quot;&gt;string&lt;/span&gt;&lt;/font&gt;&lt;/div&gt;" style="rounded=0;whiteSpace=wrap;html=1;sketch=1;fillColor=#b1ddf0;strokeColor=#10739e;" parent="1" vertex="1">
          <mxGeometry x="1152.5882352941176" y="250" width="217.41176470588235" height="45" as="geometry" />
        </mxCell>
        <mxCell id="lMTMJIfiO9YydzDY1bCF-19" style="edgeStyle=orthogonalEdgeStyle;curved=1;rounded=0;orthogonalLoop=1;jettySize=auto;html=1;entryX=0;entryY=0.5;entryDx=0;entryDy=0;fontColor=#000000;exitX=1;exitY=0.5;exitDx=0;exitDy=0;sketch=1;" parent="1" source="lMTMJIfiO9YydzDY1bCF-16" target="lMTMJIfiO9YydzDY1bCF-12" edge="1">
          <mxGeometry x="530" y="250" as="geometry">
            <Array as="points">
              <mxPoint x="1389.764705882353" y="273" />
              <mxPoint x="1389.764705882353" y="200" />
              <mxPoint x="510.2352941176471" y="200" />
              <mxPoint x="510.2352941176471" y="273" />
            </Array>
          </mxGeometry>
        </mxCell>
        <mxCell id="qPYvJAcTCLMzXNwxLk-w-43" style="edgeStyle=orthogonalEdgeStyle;rounded=0;sketch=1;orthogonalLoop=1;jettySize=auto;html=1;fontSize=14;fontColor=#1A1A1A;curved=1;exitX=0.5;exitY=0;exitDx=0;exitDy=0;entryX=0.5;entryY=0;entryDx=0;entryDy=0;" parent="1" source="qPYvJAcTCLMzXNwxLk-w-24" target="qPYvJAcTCLMzXNwxLk-w-30" edge="1">
          <mxGeometry relative="1" as="geometry">
            <mxPoint x="700" y="430" as="targetPoint" />
            <Array as="points">
              <mxPoint x="580" y="410" />
              <mxPoint x="700" y="410" />
            </Array>
          </mxGeometry>
        </mxCell>
        <mxCell id="qPYvJAcTCLMzXNwxLk-w-24" value="entry1" style="rounded=0;whiteSpace=wrap;html=1;shadow=0;sketch=1;fontSize=14;strokeColor=#0e8088;fillColor=#b0e3e6;" parent="1" vertex="1">
          <mxGeometry x="550" y="440" width="60" height="50" as="geometry" />
        </mxCell>
        <mxCell id="qPYvJAcTCLMzXNwxLk-w-29" value="..." style="rounded=0;whiteSpace=wrap;html=1;shadow=0;sketch=1;fontSize=14;strokeColor=#0e8088;fillColor=#b0e3e6;" parent="1" vertex="1">
          <mxGeometry x="610" y="440" width="60" height="50" as="geometry" />
        </mxCell>
        <mxCell id="qPYvJAcTCLMzXNwxLk-w-36" style="rounded=0;sketch=1;orthogonalLoop=1;jettySize=auto;html=1;fontSize=14;fontColor=#1A1A1A;exitX=1;exitY=1;exitDx=0;exitDy=0;" parent="1" source="qPYvJAcTCLMzXNwxLk-w-30" edge="1">
          <mxGeometry relative="1" as="geometry">
            <mxPoint x="730" y="560" as="targetPoint" />
          </mxGeometry>
        </mxCell>
        <mxCell id="qPYvJAcTCLMzXNwxLk-w-30" value="entry16" style="rounded=0;whiteSpace=wrap;html=1;shadow=0;sketch=1;fontSize=14;strokeColor=#0e8088;fillColor=#b0e3e6;" parent="1" vertex="1">
          <mxGeometry x="670" y="440" width="60" height="50" as="geometry" />
        </mxCell>
        <mxCell id="qPYvJAcTCLMzXNwxLk-w-32" value="entry17" style="rounded=0;whiteSpace=wrap;html=1;shadow=0;sketch=1;fontSize=14;strokeColor=#0e8088;fillColor=#b0e3e6;" parent="1" vertex="1">
          <mxGeometry x="730" y="440" width="60" height="50" as="geometry" />
        </mxCell>
        <mxCell id="qPYvJAcTCLMzXNwxLk-w-33" value="..." style="rounded=0;whiteSpace=wrap;html=1;shadow=0;sketch=1;fontSize=14;strokeColor=#0e8088;fillColor=#b0e3e6;" parent="1" vertex="1">
          <mxGeometry x="790" y="440" width="60" height="50" as="geometry" />
        </mxCell>
        <mxCell id="qPYvJAcTCLMzXNwxLk-w-34" value="entry32" style="rounded=0;whiteSpace=wrap;html=1;shadow=0;sketch=1;fontSize=14;strokeColor=#0e8088;fillColor=#b0e3e6;" parent="1" vertex="1">
          <mxGeometry x="850" y="440" width="60" height="50" as="geometry" />
        </mxCell>
        <mxCell id="qPYvJAcTCLMzXNwxLk-w-35" value="..." style="rounded=0;whiteSpace=wrap;html=1;shadow=0;sketch=1;fontSize=14;strokeColor=#0e8088;fillColor=#b0e3e6;" parent="1" vertex="1">
          <mxGeometry x="910" y="440" width="60" height="50" as="geometry" />
        </mxCell>
        <mxCell id="qPYvJAcTCLMzXNwxLk-w-37" style="rounded=0;sketch=1;orthogonalLoop=1;jettySize=auto;html=1;fontSize=14;fontColor=#1A1A1A;exitX=1;exitY=1;exitDx=0;exitDy=0;" parent="1" source="qPYvJAcTCLMzXNwxLk-w-34" edge="1">
          <mxGeometry relative="1" as="geometry">
            <mxPoint x="910" y="560" as="targetPoint" />
            <mxPoint x="740" y="500" as="sourcePoint" />
          </mxGeometry>
        </mxCell>
        <mxCell id="qPYvJAcTCLMzXNwxLk-w-38" value="restart1" style="text;html=1;align=center;verticalAlign=middle;resizable=0;points=[];autosize=1;strokeColor=none;fillColor=none;fontSize=14;fontColor=#1A1A1A;" parent="1" vertex="1">
          <mxGeometry x="707.18" y="565" width="60" height="20" as="geometry" />
        </mxCell>
        <mxCell id="qPYvJAcTCLMzXNwxLk-w-40" value="restart2" style="text;html=1;align=center;verticalAlign=middle;resizable=0;points=[];autosize=1;strokeColor=none;fillColor=none;fontSize=14;fontColor=#1A1A1A;" parent="1" vertex="1">
          <mxGeometry x="890" y="565" width="60" height="20" as="geometry" />
        </mxCell>
        <mxCell id="qPYvJAcTCLMzXNwxLk-w-41" style="rounded=0;sketch=1;orthogonalLoop=1;jettySize=auto;html=1;fontSize=14;fontColor=#1A1A1A;exitX=0;exitY=1;exitDx=0;exitDy=0;" parent="1" source="qPYvJAcTCLMzXNwxLk-w-24" edge="1">
          <mxGeometry relative="1" as="geometry">
            <mxPoint x="550" y="565" as="targetPoint" />
            <mxPoint x="550" y="495" as="sourcePoint" />
          </mxGeometry>
        </mxCell>
        <mxCell id="qPYvJAcTCLMzXNwxLk-w-42" value="restart0" style="text;html=1;align=center;verticalAlign=middle;resizable=0;points=[];autosize=1;strokeColor=none;fillColor=none;fontSize=14;fontColor=#1A1A1A;" parent="1" vertex="1">
          <mxGeometry x="530" y="565" width="60" height="20" as="geometry" />
        </mxCell>
        <mxCell id="qPYvJAcTCLMzXNwxLk-w-44" style="edgeStyle=orthogonalEdgeStyle;rounded=0;sketch=1;orthogonalLoop=1;jettySize=auto;html=1;fontSize=14;fontColor=#1A1A1A;curved=1;exitX=0.5;exitY=0;exitDx=0;exitDy=0;entryX=0.5;entryY=0;entryDx=0;entryDy=0;" parent="1" edge="1">
          <mxGeometry relative="1" as="geometry">
            <mxPoint x="879.98" y="440" as="targetPoint" />
            <mxPoint x="759.98" y="440" as="sourcePoint" />
            <Array as="points">
              <mxPoint x="759.98" y="410" />
              <mxPoint x="879.98" y="410" />
            </Array>
          </mxGeometry>
        </mxCell>
        <mxCell id="qPYvJAcTCLMzXNwxLk-w-45" value="" style="rounded=0;whiteSpace=wrap;html=1;shadow=0;sketch=0;fontSize=14;fontColor=#1A1A1A;strokeColor=default;fillColor=none;gradientColor=#ffffff;" parent="1" vertex="1">
          <mxGeometry x="130" y="710" width="190" height="50" as="geometry" />
        </mxCell>
        <mxCell id="qPYvJAcTCLMzXNwxLk-w-46" value="" style="rounded=0;whiteSpace=wrap;html=1;shadow=0;sketch=0;fontSize=14;fontColor=#1A1A1A;strokeColor=default;fillColor=none;gradientColor=#ffffff;" parent="1" vertex="1">
          <mxGeometry x="130" y="760" width="190" height="50" as="geometry" />
        </mxCell>
        <mxCell id="qPYvJAcTCLMzXNwxLk-w-47" value="" style="rounded=0;whiteSpace=wrap;html=1;shadow=0;sketch=0;fontSize=14;fontColor=#1A1A1A;strokeColor=default;fillColor=none;gradientColor=#ffffff;" parent="1" vertex="1">
          <mxGeometry x="130" y="810" width="190" height="50" as="geometry" />
        </mxCell>
        <mxCell id="qPYvJAcTCLMzXNwxLk-w-48" value="" style="rounded=0;whiteSpace=wrap;html=1;shadow=0;sketch=0;fontSize=14;fontColor=#1A1A1A;strokeColor=default;fillColor=none;gradientColor=#ffffff;" parent="1" vertex="1">
          <mxGeometry x="130" y="860" width="190" height="50" as="geometry" />
        </mxCell>
        <mxCell id="qPYvJAcTCLMzXNwxLk-w-49" value="" style="rounded=0;whiteSpace=wrap;html=1;shadow=0;sketch=0;fontSize=14;fontColor=#1A1A1A;strokeColor=default;fillColor=none;gradientColor=#ffffff;" parent="1" vertex="1">
          <mxGeometry x="130" y="910" width="190" height="50" as="geometry" />
        </mxCell>
        <mxCell id="ruwQYkO3WCFCVufEuuWS-8" value="&lt;div style=&quot;color: rgb(36 , 41 , 46) ; background-color: rgb(255 , 255 , 255) ; font-family: &amp;#34;consolas&amp;#34; , &amp;#34;courier new&amp;#34; , monospace ; font-size: 14px ; line-height: 19px&quot;&gt;&lt;br&gt;&lt;/div&gt;" style="text;html=1;align=center;verticalAlign=middle;resizable=0;points=[];autosize=1;strokeColor=none;fillColor=none;" parent="1" vertex="1">
          <mxGeometry x="770" y="740" width="20" height="20" as="geometry" />
        </mxCell>
        <mxCell id="ruwQYkO3WCFCVufEuuWS-10" value="FilterBlockBuilder" style="swimlane;fontStyle=0;childLayout=stackLayout;horizontal=1;startSize=30;horizontalStack=0;resizeParent=1;resizeParentMax=0;resizeLast=0;collapsible=1;marginBottom=0;sketch=1;" parent="1" vertex="1">
          <mxGeometry x="635" y="720" width="310" height="210" as="geometry" />
        </mxCell>
        <mxCell id="ruwQYkO3WCFCVufEuuWS-11" value="const FilterPolicy* policy_" style="text;strokeColor=none;fillColor=none;align=left;verticalAlign=middle;spacingLeft=4;spacingRight=4;overflow=hidden;points=[[0,0.5],[1,0.5]];portConstraint=eastwest;rotatable=0;fontColor=#000000;sketch=1;" parent="ruwQYkO3WCFCVufEuuWS-10" vertex="1">
          <mxGeometry y="30" width="310" height="30" as="geometry" />
        </mxCell>
        <mxCell id="ruwQYkO3WCFCVufEuuWS-12" value="std::string keys_" style="text;strokeColor=none;fillColor=none;align=left;verticalAlign=middle;spacingLeft=4;spacingRight=4;overflow=hidden;points=[[0,0.5],[1,0.5]];portConstraint=eastwest;rotatable=0;fontColor=#000000;sketch=1;" parent="ruwQYkO3WCFCVufEuuWS-10" vertex="1">
          <mxGeometry y="60" width="310" height="30" as="geometry" />
        </mxCell>
        <mxCell id="ruwQYkO3WCFCVufEuuWS-13" value="std::vector&lt;size_t&gt; start_" style="text;strokeColor=none;fillColor=none;align=left;verticalAlign=middle;spacingLeft=4;spacingRight=4;overflow=hidden;points=[[0,0.5],[1,0.5]];portConstraint=eastwest;rotatable=0;sketch=1;" parent="ruwQYkO3WCFCVufEuuWS-10" vertex="1">
          <mxGeometry y="90" width="310" height="30" as="geometry" />
        </mxCell>
        <mxCell id="ruwQYkO3WCFCVufEuuWS-14" value="std::string result_" style="text;strokeColor=none;fillColor=none;align=left;verticalAlign=middle;spacingLeft=4;spacingRight=4;overflow=hidden;points=[[0,0.5],[1,0.5]];portConstraint=eastwest;rotatable=0;sketch=1;" parent="ruwQYkO3WCFCVufEuuWS-10" vertex="1">
          <mxGeometry y="120" width="310" height="30" as="geometry" />
        </mxCell>
        <mxCell id="ruwQYkO3WCFCVufEuuWS-15" value="std::vector&lt;Slice&gt; tmp_keys_" style="text;strokeColor=none;fillColor=none;align=left;verticalAlign=middle;spacingLeft=4;spacingRight=4;overflow=hidden;points=[[0,0.5],[1,0.5]];portConstraint=eastwest;rotatable=0;sketch=1;" parent="ruwQYkO3WCFCVufEuuWS-10" vertex="1">
          <mxGeometry y="150" width="310" height="30" as="geometry" />
        </mxCell>
        <mxCell id="ruwQYkO3WCFCVufEuuWS-16" value="std::vector&lt;uint32_t&gt; filter_offsets_" style="text;strokeColor=none;fillColor=none;align=left;verticalAlign=middle;spacingLeft=4;spacingRight=4;overflow=hidden;points=[[0,0.5],[1,0.5]];portConstraint=eastwest;rotatable=0;sketch=1;" parent="ruwQYkO3WCFCVufEuuWS-10" vertex="1">
          <mxGeometry y="180" width="310" height="30" as="geometry" />
        </mxCell>
        <mxCell id="YvpgKDehkagTvrISGHOB-1" value="trailer&lt;br&gt;1type+4crc" style="rounded=0;whiteSpace=wrap;html=1;shadow=0;sketch=1;fontSize=14;strokeColor=#56517e;fillColor=#d0cee2;" vertex="1" parent="1">
          <mxGeometry x="1211" y="440" width="79" height="50" as="geometry" />
        </mxCell>
      </root>
    </mxGraphModel>
  </diagram>
</mxfile>
